<svg xmlns="http://www.w3.org/2000/svg" width="141.306" height="151.503" viewBox="0 0 141.306 151.503">
  <g id="Group_18" data-name="Group 18" transform="translate(35.194 -1874)" opacity="0.21">
    <circle id="Ellipse_7" data-name="Ellipse 7" cx="4.37" cy="4.37" r="4.37" transform="translate(-16.256 1874)" fill="#0ee000"/>
    <circle id="Ellipse_7-2" data-name="Ellipse 7" cx="4.37" cy="4.37" r="4.37" transform="translate(2.682 1874)" fill="#0ee000"/>
    <circle id="Ellipse_7-3" data-name="Ellipse 7" cx="4.37" cy="4.37" r="4.37" transform="translate(21.62 1874)" fill="#0ee000"/>
    <circle id="Ellipse_7-4" data-name="Ellipse 7" cx="4.37" cy="4.37" r="4.37" transform="translate(40.558 1874)" fill="#0ee000"/>
    <circle id="Ellipse_7-5" data-name="Ellipse 7" cx="4.37" cy="4.37" r="4.37" transform="translate(59.496 1874)" fill="#0ee000"/>
    <circle id="Ellipse_7-6" data-name="Ellipse 7" cx="4.37" cy="4.37" r="4.37" transform="translate(78.434 1874)" fill="#0ee000"/>
    <circle id="Ellipse_7-7" data-name="Ellipse 7" cx="4.37" cy="4.37" r="4.37" transform="translate(97.371 1874)" fill="#0ee000"/>
    <circle id="Ellipse_7-8" data-name="Ellipse 7" cx="4.37" cy="4.37" r="4.37" transform="translate(-16.256 1894.395)" fill="#0ee000"/>
    <circle id="Ellipse_7-9" data-name="Ellipse 7" cx="4.37" cy="4.37" r="4.37" transform="translate(2.682 1894.395)" fill="#0ee000"/>
    <circle id="Ellipse_7-10" data-name="Ellipse 7" cx="4.37" cy="4.37" r="4.37" transform="translate(21.62 1894.395)" fill="#0ee000"/>
    <circle id="Ellipse_7-11" data-name="Ellipse 7" cx="4.37" cy="4.37" r="4.37" transform="translate(40.558 1894.395)" fill="#0ee000"/>
    <circle id="Ellipse_7-12" data-name="Ellipse 7" cx="4.37" cy="4.37" r="4.37" transform="translate(59.496 1894.395)" fill="#0ee000"/>
    <circle id="Ellipse_7-13" data-name="Ellipse 7" cx="4.37" cy="4.37" r="4.37" transform="translate(78.434 1894.395)" fill="#0ee000"/>
    <circle id="Ellipse_7-14" data-name="Ellipse 7" cx="4.37" cy="4.37" r="4.37" transform="translate(97.371 1894.395)" fill="#0ee000"/>
    <circle id="Ellipse_7-15" data-name="Ellipse 7" cx="4.37" cy="4.37" r="4.37" transform="translate(-16.256 1914.789)" fill="#0ee000"/>
    <circle id="Ellipse_7-16" data-name="Ellipse 7" cx="4.37" cy="4.37" r="4.37" transform="translate(2.682 1914.789)" fill="#0ee000"/>
    <circle id="Ellipse_7-17" data-name="Ellipse 7" cx="4.37" cy="4.37" r="4.37" transform="translate(21.62 1914.789)" fill="#0ee000"/>
    <circle id="Ellipse_7-18" data-name="Ellipse 7" cx="4.37" cy="4.37" r="4.37" transform="translate(40.558 1914.789)" fill="#0ee000"/>
    <circle id="Ellipse_7-19" data-name="Ellipse 7" cx="4.37" cy="4.37" r="4.37" transform="translate(59.496 1914.789)" fill="#0ee000"/>
    <circle id="Ellipse_7-20" data-name="Ellipse 7" cx="4.37" cy="4.37" r="4.37" transform="translate(78.434 1914.789)" fill="#0ee000"/>
    <circle id="Ellipse_7-21" data-name="Ellipse 7" cx="4.37" cy="4.37" r="4.37" transform="translate(97.371 1914.789)" fill="#0ee000"/>
    <circle id="Ellipse_7-22" data-name="Ellipse 7" cx="4.37" cy="4.37" r="4.37" transform="translate(-16.256 1935.184)" fill="#0ee000"/>
    <circle id="Ellipse_7-23" data-name="Ellipse 7" cx="4.37" cy="4.37" r="4.37" transform="translate(2.682 1935.184)" fill="#0ee000"/>
    <circle id="Ellipse_7-24" data-name="Ellipse 7" cx="4.37" cy="4.37" r="4.37" transform="translate(21.62 1935.184)" fill="#0ee000"/>
    <circle id="Ellipse_7-25" data-name="Ellipse 7" cx="4.37" cy="4.37" r="4.37" transform="translate(40.558 1935.184)" fill="#0ee000"/>
    <circle id="Ellipse_7-26" data-name="Ellipse 7" cx="4.37" cy="4.37" r="4.37" transform="translate(59.496 1935.184)" fill="#0ee000"/>
    <circle id="Ellipse_7-27" data-name="Ellipse 7" cx="4.37" cy="4.37" r="4.37" transform="translate(78.434 1935.184)" fill="#0ee000"/>
    <circle id="Ellipse_7-28" data-name="Ellipse 7" cx="4.37" cy="4.37" r="4.37" transform="translate(97.371 1935.184)" fill="#0ee000"/>
    <circle id="Ellipse_7-29" data-name="Ellipse 7" cx="4.37" cy="4.37" r="4.37" transform="translate(-16.256 1955.578)" fill="#0ee000"/>
    <circle id="Ellipse_7-30" data-name="Ellipse 7" cx="4.37" cy="4.37" r="4.37" transform="translate(2.682 1955.578)" fill="#0ee000"/>
    <circle id="Ellipse_7-31" data-name="Ellipse 7" cx="4.37" cy="4.37" r="4.37" transform="translate(21.62 1955.578)" fill="#0ee000"/>
    <circle id="Ellipse_7-32" data-name="Ellipse 7" cx="4.37" cy="4.37" r="4.37" transform="translate(40.558 1955.578)" fill="#0ee000"/>
    <circle id="Ellipse_7-33" data-name="Ellipse 7" cx="4.37" cy="4.37" r="4.37" transform="translate(59.496 1955.578)" fill="#0ee000"/>
    <circle id="Ellipse_7-34" data-name="Ellipse 7" cx="4.37" cy="4.37" r="4.37" transform="translate(78.434 1955.578)" fill="#0ee000"/>
    <circle id="Ellipse_7-35" data-name="Ellipse 7" cx="4.37" cy="4.37" r="4.37" transform="translate(97.371 1955.578)" fill="#0ee000"/>
    <circle id="Ellipse_7-36" data-name="Ellipse 7" cx="4.37" cy="4.37" r="4.37" transform="translate(-16.256 1975.973)" fill="#0ee000"/>
    <circle id="Ellipse_7-37" data-name="Ellipse 7" cx="4.37" cy="4.37" r="4.37" transform="translate(2.682 1975.973)" fill="#0ee000"/>
    <circle id="Ellipse_7-38" data-name="Ellipse 7" cx="4.37" cy="4.37" r="4.37" transform="translate(21.62 1975.973)" fill="#0ee000"/>
    <circle id="Ellipse_7-39" data-name="Ellipse 7" cx="4.37" cy="4.37" r="4.37" transform="translate(40.558 1975.973)" fill="#0ee000"/>
    <circle id="Ellipse_7-40" data-name="Ellipse 7" cx="4.37" cy="4.37" r="4.37" transform="translate(59.496 1975.973)" fill="#0ee000"/>
    <circle id="Ellipse_7-41" data-name="Ellipse 7" cx="4.37" cy="4.37" r="4.37" transform="translate(78.434 1975.973)" fill="#0ee000"/>
    <circle id="Ellipse_7-42" data-name="Ellipse 7" cx="4.37" cy="4.37" r="4.37" transform="translate(97.371 1975.973)" fill="#0ee000"/>
    <circle id="Ellipse_7-43" data-name="Ellipse 7" cx="4.37" cy="4.37" r="4.37" transform="translate(-16.256 1996.368)" fill="#0ee000"/>
    <circle id="Ellipse_7-44" data-name="Ellipse 7" cx="4.37" cy="4.37" r="4.37" transform="translate(2.682 1996.368)" fill="#0ee000"/>
    <circle id="Ellipse_7-45" data-name="Ellipse 7" cx="4.37" cy="4.37" r="4.37" transform="translate(21.62 1996.368)" fill="#0ee000"/>
    <circle id="Ellipse_7-46" data-name="Ellipse 7" cx="4.37" cy="4.37" r="4.37" transform="translate(40.558 1996.368)" fill="#0ee000"/>
    <circle id="Ellipse_7-47" data-name="Ellipse 7" cx="4.37" cy="4.37" r="4.37" transform="translate(59.496 1996.368)" fill="#0ee000"/>
    <circle id="Ellipse_7-48" data-name="Ellipse 7" cx="4.37" cy="4.37" r="4.37" transform="translate(78.434 1996.368)" fill="#0ee000"/>
    <circle id="Ellipse_7-49" data-name="Ellipse 7" cx="4.37" cy="4.37" r="4.37" transform="translate(97.371 1996.368)" fill="#0ee000"/>
    <circle id="Ellipse_7-50" data-name="Ellipse 7" cx="4.37" cy="4.37" r="4.37" transform="translate(-16.256 2016.763)" fill="#0ee000"/>
    <circle id="Ellipse_7-51" data-name="Ellipse 7" cx="4.37" cy="4.37" r="4.37" transform="translate(2.682 2016.763)" fill="#0ee000"/>
    <circle id="Ellipse_7-52" data-name="Ellipse 7" cx="4.37" cy="4.37" r="4.37" transform="translate(21.62 2016.763)" fill="#0ee000"/>
    <circle id="Ellipse_7-53" data-name="Ellipse 7" cx="4.37" cy="4.37" r="4.37" transform="translate(40.558 2016.763)" fill="#0ee000"/>
    <circle id="Ellipse_7-54" data-name="Ellipse 7" cx="4.37" cy="4.37" r="4.37" transform="translate(59.496 2016.763)" fill="#0ee000"/>
    <circle id="Ellipse_7-55" data-name="Ellipse 7" cx="4.37" cy="4.37" r="4.37" transform="translate(78.434 2016.763)" fill="#0ee000"/>
    <circle id="Ellipse_7-56" data-name="Ellipse 7" cx="4.37" cy="4.37" r="4.37" transform="translate(97.371 2016.763)" fill="#0ee000"/>
    <circle id="Ellipse_7-57" data-name="Ellipse 7" cx="4.37" cy="4.37" r="4.37" transform="translate(-35.194 1874)" fill="#0ee000"/>
    <circle id="Ellipse_7-58" data-name="Ellipse 7" cx="4.37" cy="4.37" r="4.37" transform="translate(-35.194 1894.395)" fill="#0ee000"/>
    <circle id="Ellipse_7-59" data-name="Ellipse 7" cx="4.37" cy="4.37" r="4.37" transform="translate(-35.194 1914.789)" fill="#0ee000"/>
    <circle id="Ellipse_7-60" data-name="Ellipse 7" cx="4.37" cy="4.37" r="4.37" transform="translate(-35.194 1935.184)" fill="#0ee000"/>
    <circle id="Ellipse_7-61" data-name="Ellipse 7" cx="4.37" cy="4.37" r="4.37" transform="translate(-35.194 1955.578)" fill="#0ee000"/>
    <circle id="Ellipse_7-62" data-name="Ellipse 7" cx="4.37" cy="4.37" r="4.37" transform="translate(-35.194 1975.973)" fill="#0ee000"/>
    <circle id="Ellipse_7-63" data-name="Ellipse 7" cx="4.37" cy="4.37" r="4.37" transform="translate(-35.194 1996.368)" fill="#0ee000"/>
    <circle id="Ellipse_7-64" data-name="Ellipse 7" cx="4.37" cy="4.37" r="4.37" transform="translate(-35.194 2016.763)" fill="#0ee000"/>
  </g>
</svg>
