<svg width="9" height="8" viewBox="0 0 9 8" fill="none" xmlns="http://www.w3.org/2000/svg">
<path d="M6.97 0.969986C7.11087 0.835875 7.29833 0.761733 7.49282 0.763205C7.68731 0.764677 7.87363 0.841647 8.01245 0.977874C8.15127 1.1141 8.23174 1.29893 8.23688 1.49336C8.24202 1.68779 8.17143 1.87661 8.04 2.01999L4.05 7.00999C3.98139 7.08389 3.89859 7.14319 3.80653 7.18435C3.71448 7.22552 3.61507 7.2477 3.51425 7.24956C3.41343 7.25143 3.31327 7.23295 3.21976 7.19522C3.12624 7.15749 3.0413 7.10129 2.97 7.02999L0.324001 4.38399C0.250314 4.31532 0.191212 4.23252 0.15022 4.14052C0.109228 4.04853 0.0871863 3.94921 0.0854095 3.84851C0.0836328 3.74781 0.102158 3.64778 0.139879 3.55439C0.1776 3.461 0.233744 3.37617 0.304963 3.30495C0.376182 3.23373 0.461016 3.17758 0.554404 3.13986C0.647792 3.10214 0.747821 3.08362 0.848524 3.08539C0.949227 3.08717 1.04854 3.10921 1.14054 3.15021C1.23254 3.1912 1.31534 3.2503 1.384 3.32399L3.478 5.41699L6.951 0.991987C6.95725 0.984288 6.96393 0.976943 6.971 0.969986H6.97Z" fill="#0EE000"/>
</svg>
