<svg id="Layer_2" data-name="Layer 2" xmlns="http://www.w3.org/2000/svg" width="60.426" height="43.09" viewBox="0 0 60.426 43.09">
  <g id="Layer_1" data-name="Layer 1">
    <path id="_Path_" data-name="&lt;Path&gt;" d="M2.2,37.019V16.32H12.36s20-.029,20.635,20.7S11.266,57.276,11.266,57.276L2.2,57.126V47.252l8.909.014s10.943.915,11.724-10.253c0,0,.626-9.6-10-10.538V36.8Z" transform="translate(-1.912 -14.187)" fill="#00a8ff"/>
    <path id="_Path_2" data-name="&lt;Path&gt;" d="M190.189,36.591v20.7h-10.16s-20.009.029-20.635-20.7,21.729-20.257,21.729-20.257l9.066.15v9.868l-8.909-.014s-10.943-.908-11.724,10.254c0,0-.625,9.6,10,10.536V36.808Z" transform="translate(-138.552 -14.199)" fill="#00a8ff"/>
    <path id="_Path_3" data-name="&lt;Path&gt;" d="M60.426,7.389,51.637,0V2.281l-8.911-.146S32.065,1.912,25.615,8.529h0c-2.92,3-4.986,7.4-4.789,13.861v.1l-.047.345C20,33.994,8.971,33.084,8.971,33.084L0,33.065v9.868l9.133.15s10.662.222,17.107-6.393c2.92-3,4.987-7.4,4.791-13.868l.044-.435c.784-11.162,11.809-10.254,11.809-10.254l8.756.014v2.626Z" fill="#0ee000"/>
  </g>
</svg>
